<svg height="51" viewBox="0 0 50 51" width="50" xmlns="http://www.w3.org/2000/svg"><g fill="none"><path d="m13.7 15.2035722.0113636-.0184355-6.81818178-4.6088889-.01136364.0184355c-.18068182-.1232877-.38636363-.2120089-.61931818-.2120089-.62840909 0-1.13636364.5150434-1.13636364 1.1522223v11.5222222c0 .6371789.50795455 1.1522222 1.13636364 1.1522222s1.13636364-.5150433 1.13636364-1.1522222v-9.3698711l5.05113636 3.4151866.0113636-.0184355c.1806819.1232878.3863637.2120089.6193182.2120089.6284091 0 1.1363637-.5150434 1.1363637-1.1522222 0-.3986689-.2125-.7339656-.5170455-.9402134z" fill="#d96459"/><path d="m48.3079545.01267444h-6.8181818c-.6284091 0-1.1363636.51504334-1.1363636 1.15222223v48.39333333c0 .6371789.5079545 1.1522222 1.1363636 1.1522222h6.8181818c.6284091 0 1.1363637-.5150433 1.1363637-1.1522222v-48.39333333c0-.63602667-.5079546-1.15222223-1.1363637-1.15222223zm-1.1363636 48.39333336h-4.5454545v-46.08888891h4.5454545zm-44.6340909-48.06955891c-.44772727-.44821445-1.17272727-.44821445-1.62159091 0-.22613636.22583555-.33636363.52310889-.33295454.81807778 0 .00345666-.00227273.00691333-.00227273.01037v48.39333333c0 .0034567.00227273.0069133.00227273.01037-.00340909.2961211.10681818.5933944.33295454.81923.44886364.4482144 1.17386364.4482144 1.62159091 0l35.1852273-24.1851444c.4465909-.4470623.4465909-1.1729623 0-1.6188723zm.31590909 47.10399671v-44.15430782l32.16931821 22.10653552z" fill="#000"/></g></svg>