<?xml version="1.0" encoding="UTF-8"?>
<svg width="32px" height="46px" viewBox="0 0 32 46" version="1.1" xmlns="http://www.w3.org/2000/svg" xmlns:xlink="http://www.w3.org/1999/xlink">
    <!-- Generator: Sketch 50.2 (55047) - http://www.bohemiancoding.com/sketch -->
    <title>pause</title>
    <desc>Created with Sketch.</desc>
    <defs></defs>
    <g id="Design" stroke="none" stroke-width="1" fill="none" fill-rule="evenodd">
        <g id="v.2-Post" transform="translate(-28.000000, -953.000000)" fill-rule="nonzero">
            <g id="Audio" transform="translate(20.000000, 795.000000)">
                <g id="pause" transform="translate(8.000000, 158.000000)">
                    <path d="M7.13636364,4 L5.04545455,4 C4.46731818,4 4,4.447 4,5 L4,10 C4,10.553 4.46731818,11 5.04545455,11 C5.62359091,11 6.09090909,10.553 6.09090909,10 L6.09090909,6 L7.13636364,6 C7.7145,6 8.18181818,5.553 8.18181818,5 C8.18181818,4.447 7.7145,4 7.13636364,4 Z M25.9545455,4 L23.8636364,4 C23.2855,4 22.8181818,4.447 22.8181818,5 L22.8181818,10 C22.8181818,10.553 23.2855,11 23.8636364,11 C24.4417727,11 24.9090909,10.553 24.9090909,10 L24.9090909,6 L25.9545455,6 C26.5326818,6 27,5.553 27,5 C27,4.447 26.5326818,4 25.9545455,4 Z" id="Shape" fill="#D96459"></path>
                    <path d="M11.7333333,0 L1.06666667,0 C0.4768,0 0,0.467318182 0,1.04545455 L0,44.9545455 C0,45.5326818 0.4768,46 1.06666667,46 L11.7333333,46 C12.3232,46 12.8,45.5326818 12.8,44.9545455 L12.8,1.04545455 C12.8,0.467318182 12.3232,0 11.7333333,0 Z M10.6666667,43.9090909 L2.13333333,43.9090909 L2.13333333,2.09090909 L10.6666667,2.09090909 L10.6666667,43.9090909 Z M30.9333333,0 L20.2666667,0 C19.6768,0 19.2,0.467318182 19.2,1.04545455 L19.2,44.9545455 C19.2,45.5326818 19.6768,46 20.2666667,46 L30.9333333,46 C31.5232,46 32,45.5326818 32,44.9545455 L32,1.04545455 C32,0.467318182 31.5232,0 30.9333333,0 Z M29.8666667,43.9090909 L21.3333333,43.9090909 L21.3333333,2.09090909 L29.8666667,2.09090909 L29.8666667,43.9090909 Z" id="Shape" fill="#000000"></path>
                </g>
            </g>
        </g>
    </g>
</svg>