<svg height="46" viewBox="0 0 32 46" width="32" xmlns="http://www.w3.org/2000/svg"><g fill="none"><path d="m7.13636364 4h-2.09090909c-.57813637 0-1.04545455.447-1.04545455 1v5c0 .553.46731818 1 1.04545455 1 .57813636 0 1.04545454-.447 1.04545454-1v-4h1.04545455c.57813636 0 1.04545454-.447 1.04545454-1s-.46731818-1-1.04545454-1zm18.81818186 0h-2.0909091c-.5781364 0-1.0454546.447-1.0454546 1v5c0 .553.4673182 1 1.0454546 1 .5781363 0 1.0454545-.447 1.0454545-1v-4h1.0454546c.5781363 0 1.0454545-.447 1.0454545-1s-.4673182-1-1.0454545-1z" fill="#d96459"/><path d="m11.7333333 0h-10.66666663c-.58986667 0-1.06666667.46731818-1.06666667 1.04545455v43.90909095c0 .5781363.4768 1.0454545 1.06666667 1.0454545h10.66666663c.5898667 0 1.0666667-.4673182 1.0666667-1.0454545v-43.90909095c0-.57813637-.4768-1.04545455-1.0666667-1.04545455zm-1.0666666 43.9090909h-8.53333337v-41.81818181h8.53333337zm20.2666666-43.9090909h-10.6666666c-.5898667 0-1.0666667.46731818-1.0666667 1.04545455v43.90909095c0 .5781363.4768 1.0454545 1.0666667 1.0454545h10.6666666c.5898667 0 1.0666667-.4673182 1.0666667-1.0454545v-43.90909095c0-.57813637-.4768-1.04545455-1.0666667-1.04545455zm-1.0666666 43.9090909h-8.5333334v-41.81818181h8.5333334z" fill="#000"/></g></svg>