<svg height="50" viewBox="0 0 37 50" width="37" xmlns="http://www.w3.org/2000/svg"><g fill="none"><path d="m13.6795309 14.9392857-6.34364299-4.7892857c-.17087254-.1083333-.35669642-.1404762-.54145235-.1416667-.01281544-.0011904-.02135907-.0083333-.03417451-.0083333-.02456293 0-.04485404.0142857-.06941697.0154762-.09931966.0095238-.19329956.0273809-.28514355.0654762-.05232971.0202381-.09718375.047619-.1441737.0761905-.07475673.0428571-.14310575.0916666-.20718295.1547619-.03951427.0392857-.07048492.0821428-.10359148.1273809-.03951427.0511905-.08864012.0892857-.12067872.1476191-.01708726.0345238-.01708726.0702381-.03203861.1047619-.0160193.0380952-.02349497.0773809-.03631041.1178571-.03524246.1154762-.06087334.2285714-.06300925.3488095-.00106795.0119048-.00640772.0214286-.00640772.0321429v11.9047619c0 .6583333.47737515 1.1904762 1.06795336 1.1904762s1.06795336-.5321429 1.06795336-1.1904762v-9.6702381l4.74812059 3.5845238c.527569.3297619 1.2014476.1345238 1.5058143-.4369048.3054346-.572619.1249505-1.3035714-.4026184-1.6333333z" fill="#d96459"/><path d="m36.6693198 24.1714464-34.73740704-23.84008176c-.44202882-.44181952-1.15780137-.44181952-1.60095209 0-.22325822.22261344-.33208257.51564541-.32871687.80640582 0 .00340735-.0022438.0068147-.0022438.01022204v47.7028792c0 .0034074.0022438.0068147.0022438.0102221-.0033657.2918961.10545865.5849281.32871687.8075416.44315072.4418195 1.15892327.4418195 1.60095209 0l34.73740704-23.9014141c.4409069-.4406837.4409069-1.1562269 0-1.5957749zm-34.42551868 22.5884491v-43.52433414l31.75988298 21.73320464z" fill="#000"/></g></svg>