<?xml version="1.0" encoding="UTF-8"?>
<svg width="50px" height="50px" viewBox="0 0 50 50" version="1.1" xmlns="http://www.w3.org/2000/svg" xmlns:xlink="http://www.w3.org/1999/xlink">
    <!-- Generator: Sketch 50.2 (55047) - http://www.bohemiancoding.com/sketch -->
    <title>stop</title>
    <desc>Created with Sketch.</desc>
    <defs></defs>
    <g id="Design" stroke="none" stroke-width="1" fill="none" fill-rule="evenodd">
        <g id="v.2-Post" transform="translate(-378.000000, -859.000000)" fill-rule="nonzero">
            <g id="Audio" transform="translate(20.000000, 795.000000)">
                <g id="CONTROLS" transform="translate(289.000000, 64.000000)">
                    <g id="stop" transform="translate(69.000000, 0.000000)">
                        <path d="M14.7727273,4.54545455 L5.68181818,4.54545455 C5.05340909,4.54545455 4.54545455,5.05340909 4.54545455,5.68181818 L4.54545455,18.1818182 C4.54545455,18.8102273 5.05340909,19.3181818 5.68181818,19.3181818 C6.31022727,19.3181818 6.81818182,18.8102273 6.81818182,18.1818182 L6.81818182,6.81818182 L14.7727273,6.81818182 C15.4011364,6.81818182 15.9090909,6.31022727 15.9090909,5.68181818 C15.9090909,5.05340909 15.4011364,4.54545455 14.7727273,4.54545455 Z" id="Shape" fill="#D96459"></path>
                        <path d="M48.8636364,0 L1.13636364,0 C0.507954545,0 0,0.507954545 0,1.13636364 L0,48.8636364 C0,49.4920455 0.507954545,50 1.13636364,50 L48.8636364,50 C49.4920455,50 50,49.4920455 50,48.8636364 L50,1.13636364 C50,0.507954545 49.4920455,0 48.8636364,0 Z M47.7272727,47.7272727 L2.27272727,47.7272727 L2.27272727,2.27272727 L47.7272727,2.27272727 L47.7272727,47.7272727 Z" id="Shape" fill="#000000"></path>
                    </g>
                </g>
            </g>
        </g>
    </g>
</svg>