<svg height="50" viewBox="0 0 50 50" width="50" xmlns="http://www.w3.org/2000/svg"><g fill="none"><path d="m14.7727273 4.54545455h-9.09090912c-.62840909 0-1.13636363.50795454-1.13636363 1.13636363v12.50000002c0 .6284091.50795454 1.1363636 1.13636363 1.1363636s1.13636364-.5079545 1.13636364-1.1363636v-11.36363638h7.95454548c.6284091 0 1.1363636-.50795455 1.1363636-1.13636364s-.5079545-1.13636363-1.1363636-1.13636363z" fill="#d96459"/><path d="m48.8636364 0h-47.72727276c-.62840909 0-1.13636364.50795455-1.13636364 1.13636364v47.72727276c0 .6284091.50795455 1.1363636 1.13636364 1.1363636h47.72727276c.6284091 0 1.1363636-.5079545 1.1363636-1.1363636v-47.72727276c0-.62840909-.5079545-1.13636364-1.1363636-1.13636364zm-1.1363637 47.7272727h-45.45454543v-45.45454543h45.45454543z" fill="#000"/></g></svg>