<svg height="40" viewBox="0 0 44 40" width="44" xmlns="http://www.w3.org/2000/svg"><g fill="#6f6f6f"><path d="m34.632 5.277-2 1.971c-2.958-2.038-6.544-3.248-10.427-3.248-3.874 0-7.456 1.203-10.41 3.233l-2.302-2.268-1.434 1.414 2.771 2.732c.182.271.493.452.849.452.252 0 .479-.094.657-.244 2.736-2.073 6.15-3.319 9.869-3.319 3.739 0 7.173 1.259 9.918 3.352l.01-.013c.174.138.392.224.632.224.356 0 .667-.181.848-.452l2.454-2.419z"/><path d="m22 0c-12.15 0-22 9.85-22 22 0 4.035 1.102 7.806 3 11.055v3.945c0 .553.447 1 1 1h3.184c.413 1.162 1.512 2 2.816 2 1.657 0 3-1.343 3-3v-12c0-1.657-1.343-3-3-3-1.305 0-2.403.838-2.816 2h-3.184c-.553 0-1 .447-1 1v3.132c-.632-1.935-1-3.986-1-6.132 0-11.046 8.954-20 20-20s20 8.954 20 20c0 2.146-.368 4.197-1 6.132v-3.132c0-.553-.447-1-1-1h-3.184c-.413-1.162-1.512-2-2.816-2-1.657 0-3 1.343-3 3v12c0 1.657 1.343 3 3 3 1.305 0 2.403-.838 2.816-2h3.184c.553 0 1-.447 1-1v-3.945c1.898-3.249 3-7.019 3-11.055 0-12.15-9.85-22-22-22zm-13 25c0-.553.447-1 1-1s1 .447 1 1v12c0 .553-.447 1-1 1s-1-.447-1-1zm-4 1h2v10h-2zm30 11c0 .553-.447 1-1 1s-1-.447-1-1v-12c0-.553.447-1 1-1s1 .447 1 1zm4-1h-2v-10h2z"/></g></svg>