<?xml version="1.0" encoding="UTF-8"?>
<svg width="24px" height="22px" viewBox="0 0 24 22" version="1.1" xmlns="http://www.w3.org/2000/svg" xmlns:xlink="http://www.w3.org/1999/xlink">
    <!-- Generator: Sketch 50.2 (55047) - http://www.bohemiancoding.com/sketch -->
    <title>headphones</title>
    <desc>Created with Sketch.</desc>
    <defs></defs>
    <g id="Design" stroke="none" stroke-width="1" fill="none" fill-rule="evenodd">
        <g id="v.2-Post" transform="translate(-401.000000, -1034.000000)">
            <g id="Audio" transform="translate(20.000000, 795.000000)">
                <g id="headphones" transform="translate(381.000000, 239.000000)">
                    <path d="M18.2314696,2.6886572 L17.160347,3.75157289 C15.5761568,2.65252562 13.6556341,2 11.5760497,2 C9.50128535,2 7.58290488,2.64875067 6.0008569,3.74348373 L4.76799486,2.52040266 L4,3.28294086 L5.48404027,4.75624663 C5.58151243,4.9023908 5.74807198,5 5.93873179,5 C6.07369323,5 6.19526564,4.94930793 6.29059554,4.86841632 C7.75589117,3.75049434 9.58429734,3.07855474 11.5760497,3.07855474 C13.5785133,3.07855474 15.4176307,3.75750494 16.8877464,4.88621248 L16.893102,4.87920187 C16.9862896,4.95362215 17.103042,5 17.2315767,5 C17.4222365,5 17.5887961,4.9023908 17.6857326,4.75624663 L19,3.45173468 L18.2314696,2.6886572 Z" id="Shape" fill="#000000" fill-rule="nonzero"></path>
                    <rect id="Rectangle-2" fill="#D96459" x="17" y="12" width="3" height="10"></rect>
                    <rect id="Rectangle-2-Copy" fill="#D96459" x="4" y="12" width="3" height="10"></rect>
                    <path d="M12,0 C5.37272727,0 0,5.4175 0,12.1 C0,14.31925 0.601090909,16.3933 1.63636364,18.18025 L1.63636364,20.35 C1.63636364,20.65415 1.88018182,20.9 2.18181818,20.9 L3.91854545,20.9 C4.14381818,21.5391 4.74327273,22 5.45454545,22 C6.35836364,22 7.09090909,21.26135 7.09090909,20.35 L7.09090909,13.75 C7.09090909,12.83865 6.35836364,12.1 5.45454545,12.1 C4.74272727,12.1 4.14381818,12.5609 3.91854545,13.2 L2.18181818,13.2 C1.88018182,13.2 1.63636364,13.44585 1.63636364,13.75 L1.63636364,15.4726 C1.29163636,14.40835 1.09090909,13.2803 1.09090909,12.1 C1.09090909,6.0247 5.97490909,1.1 12,1.1 C18.0250909,1.1 22.9090909,6.0247 22.9090909,12.1 C22.9090909,13.2803 22.7083636,14.40835 22.3636364,15.4726 L22.3636364,13.75 C22.3636364,13.44585 22.1198182,13.2 21.8181818,13.2 L20.0814545,13.2 C19.8561818,12.5609 19.2567273,12.1 18.5454545,12.1 C17.6416364,12.1 16.9090909,12.83865 16.9090909,13.75 L16.9090909,20.35 C16.9090909,21.26135 17.6416364,22 18.5454545,22 C19.2572727,22 19.8561818,21.5391 20.0814545,20.9 L21.8181818,20.9 C22.1198182,20.9 22.3636364,20.65415 22.3636364,20.35 L22.3636364,18.18025 C23.3989091,16.3933 24,14.3198 24,12.1 C24,5.4175 18.6272727,0 12,0 Z M4.90909091,13.75 C4.90909091,13.44585 5.15290909,13.2 5.45454545,13.2 C5.75618182,13.2 6,13.44585 6,13.75 L6,20.35 C6,20.65415 5.75618182,20.9 5.45454545,20.9 C5.15290909,20.9 4.90909091,20.65415 4.90909091,20.35 L4.90909091,13.75 Z M2.72727273,14.3 L3.81818182,14.3 L3.81818182,19.8 L2.72727273,19.8 L2.72727273,14.3 Z M19.0909091,20.35 C19.0909091,20.65415 18.8470909,20.9 18.5454545,20.9 C18.2438182,20.9 18,20.65415 18,20.35 L18,13.75 C18,13.44585 18.2438182,13.2 18.5454545,13.2 C18.8470909,13.2 19.0909091,13.44585 19.0909091,13.75 L19.0909091,20.35 Z M21.2727273,19.8 L20.1818182,19.8 L20.1818182,14.3 L21.2727273,14.3 L21.2727273,19.8 Z" id="Shape" fill="#000000" fill-rule="nonzero"></path>
                </g>
            </g>
        </g>
    </g>
</svg>