<svg height="22" viewBox="0 0 24 22" width="24" xmlns="http://www.w3.org/2000/svg"><g fill="none" fill-rule="evenodd"><path d="m18.2314696 2.6886572-1.0711226 1.06291569c-1.5841902-1.09904727-3.5047129-1.75157289-5.5842973-1.75157289-2.07476435 0-3.99314482.64875067-5.5751928 1.74348373l-1.23286204-1.22308107-.76799486.7625382 1.48404027 1.47330577c.09747216.14614417.26403171.24375337.45469152.24375337.13496144 0 .25653385-.05069207.35186375-.13158368 1.46529563-1.11792198 3.2937018-1.78986158 5.28545416-1.78986158 2.0024636 0 3.841581.6789502 5.3116967 1.80765774l.0053556-.00701061c.0931876.07442028.20994.12079813.3384747.12079813.1906598 0 .3572194-.0976092.4541559-.24375337l1.3142674-1.30451195z" fill="#000" fill-rule="nonzero"/><path d="m17 12h3v10h-3z" fill="#d96459"/><path d="m4 12h3v10h-3z" fill="#d96459"/><path d="m12 0c-6.62727273 0-12 5.4175-12 12.1 0 2.21925.60109091 4.2933 1.63636364 6.08025v2.16975c0 .30415.24381818.55.54545454.55h1.73672727c.22527273.6391.82472728 1.1 1.536 1.1.90381819 0 1.63636364-.73865 1.63636364-1.65v-6.6c0-.91135-.73254545-1.65-1.63636364-1.65-.71181818 0-1.31072727.4609-1.536 1.1h-1.73672727c-.30163636 0-.54545454.24585-.54545454.55v1.7226c-.34472728-1.06425-.54545455-2.1923-.54545455-3.3726 0-6.0753 4.884-11 10.90909091-11 6.0250909 0 10.9090909 4.9247 10.9090909 11 0 1.1803-.2007273 2.30835-.5454545 3.3726v-1.7226c0-.30415-.2438182-.55-.5454546-.55h-1.7367273c-.2252727-.6391-.8247272-1.1-1.536-1.1-.9038181 0-1.6363636.73865-1.6363636 1.65v6.6c0 .91135.7325455 1.65 1.6363636 1.65.7118182 0 1.3107273-.4609 1.536-1.1h1.7367273c.3016364 0 .5454546-.24585.5454546-.55v-2.16975c1.0352727-1.78695 1.6363636-3.86045 1.6363636-6.08025 0-6.6825-5.3727273-12.1-12-12.1zm-7.09090909 13.75c0-.30415.24381818-.55.54545454-.55.30163637 0 .54545455.24585.54545455.55v6.6c0 .30415-.24381818.55-.54545455.55-.30163636 0-.54545454-.24585-.54545454-.55zm-2.18181818.55h1.09090909v5.5h-1.09090909zm16.36363637 6.05c0 .30415-.2438182.55-.5454546.55-.3016363 0-.5454545-.24585-.5454545-.55v-6.6c0-.30415.2438182-.55.5454545-.55.3016364 0 .5454546.24585.5454546.55zm2.1818182-.55h-1.0909091v-5.5h1.0909091z" fill="#000" fill-rule="nonzero"/></g></svg>