<svg height="13" viewBox="0 0 7 13" width="7" xmlns="http://www.w3.org/2000/svg" xmlns:xlink="http://www.w3.org/1999/xlink"><defs><path id="a" d="m485.444336 14.9873047c-.059245 0-.116373-.0105793-.171387-.0317383-.055013-.021159-.103678-.0528969-.145996-.0952148-.084636-.0846359-.126953-.1861974-.126953-.3046875 0-.1184902.042317-.2200517.126953-.3046875l5.801758-5.80175785-5.712891-5.70019531c-.084636-.08463584-.126953-.18831319-.126953-.31103516s.042317-.22639932.126953-.31103516c.084636-.08463583.188314-.12695312.311035-.12695312.122722 0 .2264.04231729.311036.12695312l6.004882 6.01757813c.084636.08463584.126954.18619732.126954.3046875s-.042318.22005166-.126954.3046875l-6.09375 6.10644535c-.042317.0423179-.090982.0740558-.145996.0952148-.055013.021159-.10791.0317383-.158691.0317383z"/></defs><g fill="none" fill-rule="evenodd" transform="matrix(-1 0 0 1 491.969726 -2)"><use fill="#535355" xlink:href="#a"/><use fill="#fff" xlink:href="#a"/></g></svg>